<mxfile host="app.diagrams.net" modified="2023-09-15T00:02:24.470Z" agent="Mozilla/5.0 (Windows NT 10.0; Win64; x64) AppleWebKit/537.36 (KHTML, like Gecko) Chrome/116.0.0.0 Safari/537.36 Edg/116.0.1938.81" etag="FalJcWWTA_yq5LgAvpZt" version="21.7.5" type="device">
  <diagram name="PÃ¡gina-1" id="GFgq_O0phbZ3LaqLFtRr">
    <mxGraphModel dx="1616" dy="1978" grid="1" gridSize="10" guides="1" tooltips="1" connect="1" arrows="1" fold="1" page="1" pageScale="1" pageWidth="827" pageHeight="1169" math="0" shadow="0">
      <root>
        <mxCell id="0" />
        <mxCell id="1" parent="0" />
        <mxCell id="hGrN7pnuNIf1KeDy84Ua-1" value="Principal" style="rounded=0;whiteSpace=wrap;html=1;" parent="1" vertex="1">
          <mxGeometry x="280" y="500" width="320" height="40" as="geometry" />
        </mxCell>
        <mxCell id="3T-60NQDBzJI0rx_HEUi-2" value="EntradaSaida" style="rounded=0;whiteSpace=wrap;html=1;" parent="1" vertex="1">
          <mxGeometry x="280" y="670" width="320" height="40" as="geometry" />
        </mxCell>
        <mxCell id="3T-60NQDBzJI0rx_HEUi-3" value="&lt;div style=&quot;&quot;&gt;+solicitaOperacao(): int&lt;/div&gt;&lt;div style=&quot;&quot;&gt;+solicitaNumero(ordem:String): double&lt;/div&gt;&lt;div style=&quot;&quot;&gt;+mostraResultado(resultado:double, operacao:int): void&lt;/div&gt;" style="rounded=0;whiteSpace=wrap;html=1;align=left;" parent="1" vertex="1">
          <mxGeometry x="280" y="710" width="320" height="70" as="geometry" />
        </mxCell>
        <mxCell id="LmZ5TZI8CQSGxY8xNIQi-1" value="&lt;div style=&quot;&quot;&gt;+main(args:String[]): void&lt;/div&gt;" style="rounded=0;whiteSpace=wrap;html=1;align=left;" parent="1" vertex="1">
          <mxGeometry x="280" y="540" width="320" height="40" as="geometry" />
        </mxCell>
        <mxCell id="xK08J3icBSuV7gtIJAQm-1" value="" style="endArrow=classic;html=1;rounded=0;exitX=0.5;exitY=1;exitDx=0;exitDy=0;entryX=0.5;entryY=0;entryDx=0;entryDy=0;" parent="1" target="3T-60NQDBzJI0rx_HEUi-2" edge="1">
          <mxGeometry width="50" height="50" relative="1" as="geometry">
            <mxPoint x="440.5" y="580" as="sourcePoint" />
            <mxPoint x="440" y="740" as="targetPoint" />
            <Array as="points" />
          </mxGeometry>
        </mxCell>
        <mxCell id="xK08J3icBSuV7gtIJAQm-2" value="Use" style="edgeLabel;html=1;align=center;verticalAlign=middle;resizable=0;points=[];" parent="xK08J3icBSuV7gtIJAQm-1" connectable="0" vertex="1">
          <mxGeometry x="0.0058" y="-1" relative="1" as="geometry">
            <mxPoint as="offset" />
          </mxGeometry>
        </mxCell>
        <mxCell id="xK08J3icBSuV7gtIJAQm-4" value="Soma" style="rounded=0;whiteSpace=wrap;html=1;" parent="1" vertex="1">
          <mxGeometry x="-240" y="330" width="320" height="40" as="geometry" />
        </mxCell>
        <mxCell id="xK08J3icBSuV7gtIJAQm-5" value="&lt;div style=&quot;&quot;&gt;+calcula(): double&lt;/div&gt;" style="rounded=0;whiteSpace=wrap;html=1;align=left;" parent="1" vertex="1">
          <mxGeometry x="-240" y="370" width="320" height="40" as="geometry" />
        </mxCell>
        <mxCell id="xK08J3icBSuV7gtIJAQm-7" value="Subtracaco" style="rounded=0;whiteSpace=wrap;html=1;" parent="1" vertex="1">
          <mxGeometry x="120" y="330" width="320" height="40" as="geometry" />
        </mxCell>
        <mxCell id="xK08J3icBSuV7gtIJAQm-8" value="&lt;div style=&quot;&quot;&gt;+calcula(): double&lt;br&gt;&lt;/div&gt;" style="rounded=0;whiteSpace=wrap;html=1;align=left;" parent="1" vertex="1">
          <mxGeometry x="120" y="370" width="320" height="40" as="geometry" />
        </mxCell>
        <mxCell id="xK08J3icBSuV7gtIJAQm-10" value="Multiplicacao" style="rounded=0;whiteSpace=wrap;html=1;" parent="1" vertex="1">
          <mxGeometry x="480" y="330" width="320" height="40" as="geometry" />
        </mxCell>
        <mxCell id="xK08J3icBSuV7gtIJAQm-11" value="&lt;div style=&quot;&quot;&gt;+calcula(): double&lt;br&gt;&lt;/div&gt;" style="rounded=0;whiteSpace=wrap;html=1;align=left;" parent="1" vertex="1">
          <mxGeometry x="480" y="370" width="320" height="40" as="geometry" />
        </mxCell>
        <mxCell id="xK08J3icBSuV7gtIJAQm-13" value="Divisao" style="rounded=0;whiteSpace=wrap;html=1;" parent="1" vertex="1">
          <mxGeometry x="840" y="330" width="320" height="40" as="geometry" />
        </mxCell>
        <mxCell id="xK08J3icBSuV7gtIJAQm-14" value="&lt;div style=&quot;&quot;&gt;+calcula(): double&lt;br&gt;&lt;/div&gt;" style="rounded=0;whiteSpace=wrap;html=1;align=left;" parent="1" vertex="1">
          <mxGeometry x="840" y="370" width="320" height="40" as="geometry" />
        </mxCell>
        <mxCell id="xK08J3icBSuV7gtIJAQm-16" value="" style="endArrow=classic;html=1;rounded=0;exitX=0.5;exitY=1;exitDx=0;exitDy=0;entryX=0.5;entryY=1;entryDx=0;entryDy=0;" parent="1" target="xK08J3icBSuV7gtIJAQm-5" edge="1">
          <mxGeometry width="50" height="50" relative="1" as="geometry">
            <mxPoint x="280" y="500" as="sourcePoint" />
            <mxPoint x="-78.68" y="580" as="targetPoint" />
            <Array as="points" />
          </mxGeometry>
        </mxCell>
        <mxCell id="xK08J3icBSuV7gtIJAQm-17" value="Use" style="edgeLabel;html=1;align=center;verticalAlign=middle;resizable=0;points=[];" parent="xK08J3icBSuV7gtIJAQm-16" connectable="0" vertex="1">
          <mxGeometry x="0.0058" y="-1" relative="1" as="geometry">
            <mxPoint as="offset" />
          </mxGeometry>
        </mxCell>
        <mxCell id="xK08J3icBSuV7gtIJAQm-18" value="" style="endArrow=classic;html=1;rounded=0;exitX=0.25;exitY=0;exitDx=0;exitDy=0;entryX=0.5;entryY=1;entryDx=0;entryDy=0;" parent="1" source="hGrN7pnuNIf1KeDy84Ua-1" target="xK08J3icBSuV7gtIJAQm-8" edge="1">
          <mxGeometry width="50" height="50" relative="1" as="geometry">
            <mxPoint x="380.5" y="500" as="sourcePoint" />
            <mxPoint x="300" y="580" as="targetPoint" />
            <Array as="points" />
          </mxGeometry>
        </mxCell>
        <mxCell id="xK08J3icBSuV7gtIJAQm-19" value="Use" style="edgeLabel;html=1;align=center;verticalAlign=middle;resizable=0;points=[];" parent="xK08J3icBSuV7gtIJAQm-18" connectable="0" vertex="1">
          <mxGeometry x="0.0058" y="-1" relative="1" as="geometry">
            <mxPoint as="offset" />
          </mxGeometry>
        </mxCell>
        <mxCell id="xK08J3icBSuV7gtIJAQm-20" value="" style="endArrow=classic;html=1;rounded=0;exitX=0.75;exitY=0;exitDx=0;exitDy=0;entryX=0.5;entryY=1;entryDx=0;entryDy=0;" parent="1" source="hGrN7pnuNIf1KeDy84Ua-1" target="xK08J3icBSuV7gtIJAQm-11" edge="1">
          <mxGeometry width="50" height="50" relative="1" as="geometry">
            <mxPoint x="510" y="500" as="sourcePoint" />
            <mxPoint x="650" y="410" as="targetPoint" />
            <Array as="points" />
          </mxGeometry>
        </mxCell>
        <mxCell id="xK08J3icBSuV7gtIJAQm-21" value="Use" style="edgeLabel;html=1;align=center;verticalAlign=middle;resizable=0;points=[];" parent="xK08J3icBSuV7gtIJAQm-20" connectable="0" vertex="1">
          <mxGeometry x="0.0058" y="-1" relative="1" as="geometry">
            <mxPoint as="offset" />
          </mxGeometry>
        </mxCell>
        <mxCell id="xK08J3icBSuV7gtIJAQm-22" value="" style="endArrow=classic;html=1;rounded=0;exitX=0.5;exitY=1;exitDx=0;exitDy=0;entryX=0.5;entryY=1;entryDx=0;entryDy=0;" parent="1" target="xK08J3icBSuV7gtIJAQm-14" edge="1">
          <mxGeometry width="50" height="50" relative="1" as="geometry">
            <mxPoint x="600" y="500" as="sourcePoint" />
            <mxPoint x="999.5" y="590" as="targetPoint" />
            <Array as="points" />
          </mxGeometry>
        </mxCell>
        <mxCell id="xK08J3icBSuV7gtIJAQm-23" value="Use" style="edgeLabel;html=1;align=center;verticalAlign=middle;resizable=0;points=[];" parent="xK08J3icBSuV7gtIJAQm-22" connectable="0" vertex="1">
          <mxGeometry x="0.0058" y="-1" relative="1" as="geometry">
            <mxPoint as="offset" />
          </mxGeometry>
        </mxCell>
        <mxCell id="hu3x_xNs48biTlIQDDgu-2" value="&lt;p style=&quot;margin:0px;margin-top:4px;text-align:center;&quot;&gt;&lt;i&gt;&amp;lt;&amp;lt;Interface&amp;gt;&amp;gt;&lt;/i&gt;&lt;br&gt;&lt;b&gt;IOperacao&lt;/b&gt;&lt;/p&gt;&lt;hr size=&quot;1&quot;&gt;&lt;p style=&quot;margin:0px;margin-left:4px;&quot;&gt;+ setNum1 (num1 : double): void&lt;br&gt;&lt;/p&gt;&lt;p style=&quot;margin:0px;margin-left:4px;&quot;&gt;+ setNum1 (num1 : double): void&lt;br&gt;&lt;/p&gt;&lt;p style=&quot;margin:0px;margin-left:4px;&quot;&gt;+ calcula(): double&lt;/p&gt;" style="verticalAlign=top;align=left;overflow=fill;fontSize=12;fontFamily=Helvetica;html=1;whiteSpace=wrap;" parent="1" vertex="1">
          <mxGeometry x="275" y="-140" width="330" height="100" as="geometry" />
        </mxCell>
        <mxCell id="hu3x_xNs48biTlIQDDgu-6" value="" style="endArrow=block;dashed=1;endFill=0;endSize=12;html=1;rounded=0;exitX=0.5;exitY=0;exitDx=0;exitDy=0;entryX=0.5;entryY=1;entryDx=0;entryDy=0;" parent="1" source="NlwN4PHrewN8t_vqmIWn-1" target="hu3x_xNs48biTlIQDDgu-2" edge="1">
          <mxGeometry width="160" relative="1" as="geometry">
            <mxPoint x="230" y="80.00000000000045" as="sourcePoint" />
            <mxPoint x="-80" y="-150" as="targetPoint" />
          </mxGeometry>
        </mxCell>
        <mxCell id="NlwN4PHrewN8t_vqmIWn-1" value="&lt;p style=&quot;margin:0px;margin-top:4px;text-align:center;&quot;&gt;&lt;b&gt;Operacoes&lt;/b&gt;&lt;/p&gt;&lt;hr size=&quot;1&quot;&gt;&lt;p style=&quot;margin:0px;margin-left:4px;&quot;&gt;#num1: double&lt;/p&gt;&lt;p style=&quot;margin:0px;margin-left:4px;&quot;&gt;#num2: double&lt;/p&gt;&lt;hr size=&quot;1&quot;&gt;&lt;p style=&quot;margin:0px;margin-left:4px;&quot;&gt;+ getNum1(): double&lt;/p&gt;&lt;p style=&quot;margin:0px;margin-left:4px;&quot;&gt;+ getNum2(): double&lt;br&gt;&lt;/p&gt;&lt;p style=&quot;margin:0px;margin-left:4px;&quot;&gt;+setNum1(num1: double):void&lt;/p&gt;&lt;p style=&quot;margin:0px;margin-left:4px;&quot;&gt;+setNum2(num2: double):void&lt;br&gt;&lt;/p&gt;" style="verticalAlign=top;align=left;overflow=fill;fontSize=12;fontFamily=Helvetica;html=1;whiteSpace=wrap;" vertex="1" parent="1">
          <mxGeometry x="275" y="40" width="330" height="140" as="geometry" />
        </mxCell>
        <mxCell id="NlwN4PHrewN8t_vqmIWn-2" value="Extends" style="endArrow=block;endSize=16;endFill=0;html=1;rounded=0;exitX=0.5;exitY=0;exitDx=0;exitDy=0;entryX=0;entryY=1;entryDx=0;entryDy=0;" edge="1" parent="1" source="xK08J3icBSuV7gtIJAQm-4" target="NlwN4PHrewN8t_vqmIWn-1">
          <mxGeometry width="160" relative="1" as="geometry">
            <mxPoint x="210" y="190" as="sourcePoint" />
            <mxPoint x="370" y="190" as="targetPoint" />
          </mxGeometry>
        </mxCell>
        <mxCell id="NlwN4PHrewN8t_vqmIWn-3" value="Extends" style="endArrow=block;endSize=16;endFill=0;html=1;rounded=0;exitX=0.5;exitY=0;exitDx=0;exitDy=0;entryX=0.25;entryY=1;entryDx=0;entryDy=0;" edge="1" parent="1" source="xK08J3icBSuV7gtIJAQm-7" target="NlwN4PHrewN8t_vqmIWn-1">
          <mxGeometry width="160" relative="1" as="geometry">
            <mxPoint x="210" y="190" as="sourcePoint" />
            <mxPoint x="370" y="190" as="targetPoint" />
          </mxGeometry>
        </mxCell>
        <mxCell id="NlwN4PHrewN8t_vqmIWn-4" value="Extends" style="endArrow=block;endSize=16;endFill=0;html=1;rounded=0;exitX=0.5;exitY=0;exitDx=0;exitDy=0;entryX=0.75;entryY=1;entryDx=0;entryDy=0;" edge="1" parent="1" source="xK08J3icBSuV7gtIJAQm-10" target="NlwN4PHrewN8t_vqmIWn-1">
          <mxGeometry width="160" relative="1" as="geometry">
            <mxPoint x="210" y="190" as="sourcePoint" />
            <mxPoint x="370" y="190" as="targetPoint" />
          </mxGeometry>
        </mxCell>
        <mxCell id="NlwN4PHrewN8t_vqmIWn-5" value="Extends" style="endArrow=block;endSize=16;endFill=0;html=1;rounded=0;exitX=0.5;exitY=0;exitDx=0;exitDy=0;entryX=1;entryY=1;entryDx=0;entryDy=0;" edge="1" parent="1" source="xK08J3icBSuV7gtIJAQm-13" target="NlwN4PHrewN8t_vqmIWn-1">
          <mxGeometry width="160" relative="1" as="geometry">
            <mxPoint x="210" y="190" as="sourcePoint" />
            <mxPoint x="370" y="190" as="targetPoint" />
          </mxGeometry>
        </mxCell>
      </root>
    </mxGraphModel>
  </diagram>
</mxfile>
